# xmcd
#
# Track frame offsets:
#	150
#	16780
#	32235
#	49050
#	61875
#	80427
#	100862
#	115322
#	133360
#	160382
#	174292
#	190667
#	202942
#	224992
#
# Disc length: 3256 seconds
#
# Revision: 2
# Processed by: cddbd v1.4PL0 Copyright (c) Steve Scherf et al.
# Submitted via: CDmax 1.9
#
DISCID=c30cb60e
DTITLE=Various Artist - The Songs of Dwight Yoakam 'Will Sing For Food'
DYEAR=1998
DGENRE=Country
TTITLE0=Rhonda Vincent - I Sang Dixie
TTITLE1=The Backsliders - Doin' What I Did
TTITLE2=David Ball - This Time
TTITLE3=Sara Evans - The Distance Between You and Me
TTITLE4=Jim Matt - Heart That You Own
TTITLE5=Tim O'Brien - Thousand Miles From Nowhere
TTITLE6=Kim Richey and Mandy Barnett - Near You
TTITLE7=Scott Joss - Johnson's Love
TTITLE8=Bonnie Bramlett-Sheridan - What I Don't Know
TTITLE9=Lonesome Strangers - Takes A Lot To Rock You
TTITLE10=The Blazers - If There Was A Way
TTITLE11=Reckless Kelly - Please, Please Baby
TTITLE12=Pete Droge - One Thousand Miles
TTITLE13=Gillian Welch and David Rawlings - Miners Prayer
EXTD=
EXTT0=
EXTT1=
EXTT2=
EXTT3=
EXTT4=
EXTT5=
EXTT6=
EXTT7=
EXTT8=
EXTT9=
EXTT10=
EXTT11=
EXTT12=
EXTT13=
PLAYORDER=
